# xmcd
#
# Track frame offsets:
#	150
#	12631
#	26815
#	37972
#	50585
#	66936
#	79164
#	92762
#	106039
#	118168
#	132505
#	146601
#	162337
#	174725
#	186621
#	198348
#	212614
#	226047
#	238743
#	252586
#	263963
#	278192
#	293644
#	307515
#	321489
#
# Disc length: 4501 seconds
# Revision: 0
# Processed by: cddbd v1.5.2PL0 Copyright (c) Steve Scherf et al.
# Submitted via: dBpowerAMP V12.0
#
DISCID=76119319
DTITLE=Various Artist - Mississippi Jook Joint Blues, disc 3
DYEAR=2016
DGENRE=Blues
TTITLE0=Fats Waller - All That Meat And No Potatos
TTITLE1=Earl Hines with Billy Eckstine - Julia
TTITLE2=Georgia White - Mama Knows What Papa Likes
TTITLE3=Sammy Price - I Know How To Do It 
TTITLE4=Larry Clinton - Do You Call That A Buddy
TTITLE5=Washboard Sam - Just Got To Hold You
TTITLE6=Louis Jordan - Brotherly Love (Wrong Ideas)
TTITLE7=Erskine Butterfield - You Might Have Belonged
TTITLE8=Jimmy Lunceford - Whatcha Know Joe
TTITLE9=Bing Crosby and Connie Boswell - Yes Indeed
TTITLE10=Andy Kirk And His Clouds Of Joy - Fifteen Minute Intermission
TTITLE11=Fats Waller - Buckin' The Dice
TTITLE12=Lil Green - What Have I Done
TTITLE13=Artie Shaw - Cross Your Heart
TTITLE14=Count Basie And His Orchestra - You Betcha My Life
TTITLE15=Buddy Johnson - I'd Be Ever So Grateful
TTITLE16=Sammy Kaye - Daddy
TTITLE17=Big Bill Broonzy - Rockin' Chair Blues
TTITLE18=Louis Armstrong - I'll Get Mine Bye And Bye
TTITLE19=Fletcher Henderson - I Like Mine Sugar Sweet
TTITLE20=Jimmy Lunceford - Twenty-Four Robbers
TTITLE21=Erskine Hawkins - Tonight You Belong To Me
TTITLE22=Ella Fitzgerald - Keep Cool Fool
TTITLE23=Cab Calloway - We Go Well Together
TTITLE24=The Ink Spots - Until The Real Thing Comes Along
EXTD=
EXTT0=
EXTT1=
EXTT2=
EXTT3=
EXTT4=
EXTT5=
EXTT6=
EXTT7=
EXTT8=
EXTT9=
EXTT10=
EXTT11=
EXTT12=
EXTT13=
EXTT14=
EXTT15=
EXTT16=
EXTT17=
EXTT18=
EXTT19=
EXTT20=
EXTT21=
EXTT22=
EXTT23=
EXTT24=
PLAYORDER=
